<?xml version="1.0" standalone="no"?><!DOCTYPE svg PUBLIC "-//W3C//DTD SVG 1.1//EN" "http://www.w3.org/Graphics/SVG/1.1/DTD/svg11.dtd"><svg t="1713251672988" class="icon" viewBox="0 0 1024 1024" version="1.1" xmlns="http://www.w3.org/2000/svg" p-id="5469" xmlns:xlink="http://www.w3.org/1999/xlink" width="200" height="200"><path d="M592 0L1024 432v588.8L3.2 0z" fill="#4689F7" p-id="5470" data-spm-anchor-id="a313x.search_index.0.i4.14793a81YYDIQU" class="selected"></path><path d="M480 153.6l16-16L614.4 256 576 297.6l-51.2-51.2-12.8 12.8 57.6 57.6c-19.2 19.2-32 32-41.6 35.2-9.6 3.2-16 0-28.8-9.6l-19.2-19.2 12.8-19.2c6.4 6.4 12.8 16 22.4 22.4 3.2 3.2 9.6 6.4 12.8 3.2l12.8-12.8-41.6-41.6-38.4 41.6-16-16L480 262.4c-25.6 3.2-54.4-3.2-89.6-19.2l6.4-25.6c28.8 16 51.2 22.4 70.4 22.4l-41.6-38.4 48-35.2 51.2 48 9.6-9.6L480 153.6z m-9.6 44.8l-16 9.6 38.4 35.2 12.8-12.8-35.2-32z m25.6-60.8l-6.4-22.4c19.2 0 35.2-3.2 51.2-9.6l12.8 19.2c-3.2 0-6.4 3.2-9.6 3.2l38.4 38.4-12.8 16-22.4-22.4c0 6.4 0 12.8-3.2 16l-19.2-9.6c3.2-9.6 3.2-16 6.4-25.6l-9.6-6.4c-9.6 3.2-16 3.2-25.6 3.2z m76.8 128l9.6-9.6-35.2-35.2-9.6 9.6 35.2 35.2z m-6.4-60.8l-6.4-22.4c19.2 0 35.2-6.4 48-12.8l12.8 19.2c-3.2 0-6.4 3.2-9.6 3.2l44.8 44.8-12.8 16-25.6-25.6c0 6.4-3.2 12.8-3.2 19.2l-19.2-9.6c3.2-9.6 3.2-16 6.4-25.6l-9.6-9.6c-9.6 0-16 3.2-25.6 3.2zM707.2 505.6l-16 16-147.2-140.8 16-16 147.2 140.8z m32-80l-16 16-102.4-99.2 16-16 102.4 99.2z m67.2-44.8l-16 16-124.8-118.4 16-16 124.8 118.4zM886.4 483.2c3.2-9.6 6.4-19.2 6.4-25.6l22.4 9.6c-3.2 9.6-6.4 22.4-9.6 35.2l60.8 57.6-16 16-86.4-83.2c-6.4 6.4-12.8 12.8-25.6 22.4l67.2 64c-35.2 35.2-57.6 57.6-70.4 60.8-16 9.6-28.8 6.4-41.6-3.2-6.4-6.4-9.6-12.8-19.2-19.2l9.6-19.2 22.4 22.4c6.4 6.4 16 6.4 25.6-3.2 6.4-3.2 19.2-16 41.6-38.4l-51.2-48c-12.8 9.6-28.8 16-44.8 22.4-22.4 6.4-44.8 9.6-70.4 6.4v-22.4c32 3.2 54.4 0 70.4-6.4 16-6.4 32-19.2 48-32 9.6-6.4 16-12.8 19.2-19.2L800 438.4l16-16 70.4 60.8z" fill="#FFFFFF" p-id="5471"></path></svg>